<svg width="26" height="27" viewBox="0 0 26 27" fill="none" xmlns="http://www.w3.org/2000/svg">
<path d="M3.96484 21.4541V4.67188C3.96484 4.05664 3.93066 3.56673 3.8623 3.20215C3.81673 2.83757 3.68001 2.56413 3.45215 2.38184C3.22428 2.17676 2.88249 2.04004 2.42676 1.97168C1.99382 1.90332 1.40137 1.86914 0.649414 1.86914V0.296875C1.42415 0.296875 2.25586 0.308268 3.14453 0.331055C4.05599 0.331055 4.96745 0.331055 5.87891 0.331055C6.81315 0.331055 7.72461 0.331055 8.61328 0.331055C9.50195 0.308268 10.3451 0.296875 11.1426 0.296875C13.444 0.296875 15.4834 0.661458 17.2607 1.39062C19.0609 2.11979 20.5762 3.08822 21.8066 4.2959C23.0371 5.48079 23.9714 6.84798 24.6094 8.39746C25.2474 9.92415 25.5664 11.5078 25.5664 13.1484C25.5664 14.7663 25.2588 16.3499 24.6436 17.8994C24.0511 19.4489 23.1396 20.8275 21.9092 22.0352C20.6787 23.2428 19.1292 24.2227 17.2607 24.9746C15.415 25.7038 13.2389 26.0684 10.7324 26.0684C10.0944 26.0456 9.34245 26.0342 8.47656 26.0342C7.63346 26.0342 6.74479 26.0342 5.81055 26.0342C4.89909 26.0342 3.98763 26.0342 3.07617 26.0342C2.1875 26.0342 1.37858 26.0456 0.649414 26.0684V24.3936C1.42415 24.3936 2.02799 24.3708 2.46094 24.3252C2.89388 24.2568 3.22428 24.1201 3.45215 23.915C3.68001 23.71 3.81673 23.4137 3.8623 23.0264C3.93066 22.639 3.96484 22.1149 3.96484 21.4541ZM7.72461 2.24512V21.4883C7.72461 22.1491 7.75879 22.6618 7.82715 23.0264C7.89551 23.391 8.05501 23.6644 8.30566 23.8467C8.55632 24.029 8.90951 24.1429 9.36523 24.1885C9.84375 24.234 10.4932 24.2568 11.3135 24.2568C13.0908 24.2568 14.6175 23.9606 15.8936 23.3682C17.1924 22.7529 18.252 21.944 19.0723 20.9414C19.9154 19.916 20.5306 18.7311 20.918 17.3867C21.3281 16.0195 21.5332 14.584 21.5332 13.0801C21.5332 11.3483 21.2712 9.79883 20.7471 8.43164C20.2458 7.06445 19.5166 5.92513 18.5596 5.01367C17.6025 4.07943 16.429 3.37305 15.0391 2.89453C13.6491 2.39323 12.0882 2.14258 10.3564 2.14258C9.58171 2.14258 8.98926 2.15397 8.5791 2.17676C8.19173 2.19954 7.9069 2.22233 7.72461 2.24512Z" fill="black"/>
</svg>
