<svg width="251" height="56" viewBox="0 0 251 56" fill="none" xmlns="http://www.w3.org/2000/svg">
<path d="M62.8398 29.7773C62.8125 29.8867 62.7852 30.2012 62.7578 30.7207C62.7578 31.2402 62.7852 31.8691 62.8398 32.6074C62.9492 34.6309 63.5234 36.3125 64.5625 37.6523C65.6016 38.9648 66.9961 39.6211 68.7461 39.6211C69.9766 39.6211 71.0566 39.3477 71.9863 38.8008C72.9434 38.2539 73.791 37.5293 74.5293 36.627L75.8418 37.4062C74.9941 38.8828 73.9004 40.0996 72.5605 41.0566C71.2207 41.9863 69.6895 42.4512 67.9668 42.4512C66.7363 42.4512 65.5879 42.2051 64.5215 41.7129C63.4824 41.1934 62.5801 40.4961 61.8145 39.6211C61.0215 38.7188 60.4062 37.6797 59.9688 36.5039C59.5586 35.3008 59.3535 34.002 59.3535 32.6074C59.3535 30.8574 59.5723 29.2988 60.0098 27.9316C60.4473 26.5371 61.0625 25.3613 61.8555 24.4043C62.6211 23.4473 63.5371 22.7227 64.6035 22.2305C65.6973 21.7109 66.873 21.4512 68.1309 21.4512C68.9785 21.4512 69.8398 21.6016 70.7148 21.9023C71.5898 22.1758 72.3691 22.5996 73.0527 23.1738C73.7363 23.748 74.2969 24.4863 74.7344 25.3887C75.1719 26.2637 75.4043 27.3027 75.4316 28.5059C75.4316 28.8066 75.418 29.0391 75.3906 29.2031C75.3906 29.3672 75.3496 29.4902 75.2676 29.5723C75.2129 29.6543 75.1035 29.709 74.9395 29.7363C74.7754 29.7637 74.5566 29.7773 74.2832 29.7773H62.8398ZM70.9199 27.9727C71.248 27.9727 71.4668 27.9316 71.5762 27.8496C71.7129 27.7402 71.7812 27.5078 71.7812 27.1523C71.7812 26.2773 71.4395 25.416 70.7559 24.5684C70.0723 23.6934 69.1426 23.2559 67.9668 23.2559C66.5723 23.2559 65.4648 23.6934 64.6445 24.5684C63.8242 25.4434 63.3047 26.5781 63.0859 27.9727H70.9199ZM80.5586 27.0293C80.2305 26.209 79.957 25.5801 79.7383 25.1426C79.5195 24.6777 79.2871 24.3359 79.041 24.1172C78.8223 23.8984 78.5625 23.7754 78.2617 23.748C77.9883 23.6934 77.6328 23.666 77.1953 23.666V22.0254C77.5508 22.0801 78.1387 22.1211 78.959 22.1484C79.8066 22.1484 80.6953 22.1484 81.625 22.1484C82.5273 22.1484 83.4023 22.1484 84.25 22.1484C85.0977 22.1211 85.7129 22.0801 86.0957 22.0254V23.666C85.3848 23.666 84.8242 23.707 84.4141 23.7891C84.0312 23.8438 83.7578 23.9668 83.5938 24.1582C83.457 24.377 83.4297 24.6914 83.5117 25.1016C83.5938 25.5117 83.7715 26.0586 84.0449 26.7422L87.7363 36.75L91.7559 26.6602C92.248 25.4297 92.4258 24.6367 92.2891 24.2812C92.1523 23.8984 91.4414 23.707 90.1562 23.707V22.0254C90.6211 22.0801 91.1816 22.1074 91.8379 22.1074C92.5215 22.1074 93.2051 22.1074 93.8887 22.1074C94.5723 22.1074 95.2148 22.1074 95.8164 22.1074C96.418 22.0801 96.8965 22.0527 97.252 22.0254V23.666C96.7871 23.666 96.4043 23.7207 96.1035 23.8301C95.8301 23.9121 95.584 24.0762 95.3652 24.3223C95.1191 24.5684 94.9004 24.8965 94.709 25.3066C94.5176 25.7168 94.2852 26.25 94.0117 26.9062L87.6953 42.4512H86.5059L80.5586 27.0293ZM105.25 37.7754C105.25 38.8965 105.4 39.5938 105.701 39.8672C106.029 40.1406 106.85 40.2773 108.162 40.2773V41.7539C107.779 41.7539 107.396 41.7539 107.014 41.7539C106.658 41.7539 106.289 41.7402 105.906 41.7129C105.523 41.7129 105.127 41.7129 104.717 41.7129C104.334 41.6855 103.965 41.6719 103.609 41.6719C102.789 41.6719 101.982 41.6855 101.189 41.7129C100.396 41.7402 99.6309 41.7539 98.8926 41.7539V40.2773C100.15 40.2773 100.93 40.1406 101.23 39.8672C101.559 39.5938 101.723 38.8965 101.723 37.7754V27.8496C101.723 26.5098 101.6 25.6621 101.354 25.3066C101.107 24.9238 100.438 24.7324 99.3438 24.7324V23.4609C100.219 23.3242 101.039 23.1055 101.805 22.8047C102.57 22.5039 103.281 22.0664 103.938 21.4922H105.455C105.373 22.2305 105.318 23.0508 105.291 23.9531C105.264 24.8555 105.25 25.6348 105.25 26.291V37.7754ZM103.363 10.541C104.047 10.541 104.635 10.7871 105.127 11.2793C105.646 11.7715 105.906 12.3594 105.906 13.043C105.906 13.7539 105.646 14.3555 105.127 14.8477C104.635 15.3125 104.047 15.5449 103.363 15.5449C102.652 15.5449 102.051 15.3125 101.559 14.8477C101.094 14.3555 100.861 13.7539 100.861 13.043C100.861 12.3594 101.094 11.7715 101.559 11.2793C102.051 10.7871 102.652 10.541 103.363 10.541ZM125.266 39.1289C123.953 40.1953 122.736 41.0156 121.615 41.5898C120.521 42.1641 119.223 42.4512 117.719 42.4512C117.145 42.4512 116.57 42.3555 115.996 42.1641C115.422 41.9727 114.902 41.6582 114.438 41.2207C113.973 40.7832 113.59 40.2363 113.289 39.5801C113.016 38.8965 112.879 38.0625 112.879 37.0781V25.8398C112.879 24.9648 112.715 24.4043 112.387 24.1582C112.086 23.9121 111.402 23.748 110.336 23.666V22.3945C111.074 22.3945 112.031 22.3535 113.207 22.2715C114.383 22.1895 115.504 22.1074 116.57 22.0254C116.516 22.5723 116.475 23.2422 116.447 24.0352C116.42 24.8281 116.406 25.4297 116.406 25.8398V34.8633C116.406 36.9414 116.639 38.2812 117.104 38.8828C117.596 39.4844 118.361 39.7852 119.4 39.7852C120.248 39.7852 121.232 39.5391 122.354 39.0469C123.502 38.5547 124.486 37.8984 125.307 37.0781V25.8398C125.307 24.9922 125.088 24.4453 124.65 24.1992C124.213 23.9258 123.447 23.748 122.354 23.666V22.3945C123.064 22.3945 124.076 22.3535 125.389 22.2715C126.729 22.1895 127.932 22.1074 128.998 22.0254C128.943 22.5723 128.902 23.2422 128.875 24.0352C128.848 24.8281 128.834 25.4297 128.834 25.8398V38.4727C128.834 39.2109 129.012 39.6484 129.367 39.7852C129.723 39.9219 130.502 39.9492 131.705 39.8672V41.1387C131.432 41.1934 131.062 41.2754 130.598 41.3848C130.16 41.4941 129.695 41.6035 129.203 41.7129C128.711 41.8496 128.205 41.9863 127.686 42.123C127.193 42.2871 126.756 42.4238 126.373 42.5332C126.1 42.6426 125.84 42.6016 125.594 42.4102C125.375 42.2461 125.266 42.041 125.266 41.7949V39.1289ZM140.318 21.4922C140.236 22.2305 140.182 22.8867 140.154 23.4609C140.127 24.0078 140.113 24.4453 140.113 24.7734C140.688 24.3633 141.248 23.9531 141.795 23.543C142.342 23.1328 142.902 22.7773 143.477 22.4766C144.051 22.1758 144.652 21.9297 145.281 21.7383C145.91 21.5469 146.607 21.4512 147.373 21.4512C148.467 21.4512 149.438 21.7383 150.285 22.3125C151.133 22.8867 151.68 23.707 151.926 24.7734C153.074 23.8711 154.195 23.0918 155.289 22.4355C156.41 21.7793 157.75 21.4512 159.309 21.4512C160.211 21.4512 160.977 21.6289 161.605 21.9844C162.262 22.3398 162.795 22.8184 163.205 23.4199C163.615 24.0215 163.916 24.7051 164.107 25.4707C164.299 26.2363 164.395 27.0293 164.395 27.8496V37.4883C164.395 38.6094 164.559 39.3613 164.887 39.7441C165.215 40.0996 165.994 40.2773 167.225 40.2773V41.7949C166.65 41.7949 165.967 41.7949 165.174 41.7949C164.381 41.7676 163.561 41.7539 162.713 41.7539C161.838 41.7539 160.99 41.7539 160.17 41.7539C159.377 41.7539 158.693 41.7676 158.119 41.7949V40.2773C159.322 40.2773 160.074 40.0996 160.375 39.7441C160.703 39.3613 160.867 38.6094 160.867 37.4883V29.3262C160.867 28.6973 160.826 28.082 160.744 27.4805C160.662 26.8516 160.512 26.291 160.293 25.7988C160.047 25.3066 159.691 24.9102 159.227 24.6094C158.789 24.2812 158.188 24.1172 157.422 24.1172C157.012 24.1172 156.561 24.2129 156.068 24.4043C155.576 24.5684 155.098 24.7734 154.633 25.0195C154.141 25.2656 153.689 25.5391 153.279 25.8398C152.869 26.1406 152.527 26.4141 152.254 26.6602V37.4883C152.254 38.6094 152.432 39.3613 152.787 39.7441C153.143 40.0996 153.963 40.2773 155.248 40.2773V41.7949C154.674 41.7949 153.963 41.7949 153.115 41.7949C152.295 41.7676 151.447 41.7539 150.572 41.7539C149.697 41.7539 148.85 41.7539 148.029 41.7539C147.209 41.7539 146.525 41.7676 145.979 41.7949V40.2773C147.154 40.2773 147.906 40.0859 148.234 39.7031C148.562 39.3203 148.727 38.582 148.727 37.4883V29.3262C148.727 28.6973 148.686 28.0684 148.604 27.4395C148.521 26.8105 148.371 26.25 148.152 25.7578C147.906 25.2656 147.551 24.8691 147.086 24.5684C146.648 24.2676 146.047 24.1172 145.281 24.1172C144.953 24.1172 144.557 24.2129 144.092 24.4043C143.627 24.5684 143.162 24.7734 142.697 25.0195C142.205 25.293 141.727 25.5938 141.262 25.9219C140.797 26.2227 140.414 26.5234 140.113 26.8242V37.4883C140.113 38.6094 140.277 39.3613 140.605 39.7441C140.961 40.0996 141.768 40.2773 143.025 40.2773V41.7949C142.424 41.7949 141.713 41.7949 140.893 41.7949C140.072 41.7676 139.225 41.7539 138.35 41.7539C137.475 41.7539 136.627 41.7539 135.807 41.7539C134.986 41.7539 134.275 41.7676 133.674 41.7949V40.2773C134.932 40.2773 135.725 40.0859 136.053 39.7031C136.408 39.3203 136.586 38.582 136.586 37.4883V27.8496C136.586 26.5098 136.463 25.6621 136.217 25.3066C135.971 24.9238 135.301 24.7324 134.207 24.7324V23.4609C135.082 23.3242 135.902 23.1055 136.668 22.8047C137.434 22.5039 138.131 22.0664 138.76 21.4922H140.318Z" fill="white"/>
<circle cx="28" cy="28" r="28" fill="white"/>
<path d="M21.9648 36.4541V19.6719C21.9648 19.0566 21.9307 18.5667 21.8623 18.2021C21.8167 17.8376 21.68 17.5641 21.4521 17.3818C21.2243 17.1768 20.8825 17.04 20.4268 16.9717C19.9938 16.9033 19.4014 16.8691 18.6494 16.8691V15.2969C19.4242 15.2969 20.2559 15.3083 21.1445 15.3311C22.056 15.3311 22.9674 15.3311 23.8789 15.3311C24.8132 15.3311 25.7246 15.3311 26.6133 15.3311C27.502 15.3083 28.3451 15.2969 29.1426 15.2969C31.444 15.2969 33.4834 15.6615 35.2607 16.3906C37.0609 17.1198 38.5762 18.0882 39.8066 19.2959C41.0371 20.4808 41.9714 21.848 42.6094 23.3975C43.2474 24.9242 43.5664 26.5078 43.5664 28.1484C43.5664 29.7663 43.2588 31.3499 42.6436 32.8994C42.0511 34.4489 41.1396 35.8275 39.9092 37.0352C38.6787 38.2428 37.1292 39.2227 35.2607 39.9746C33.415 40.7038 31.2389 41.0684 28.7324 41.0684C28.0944 41.0456 27.3424 41.0342 26.4766 41.0342C25.6335 41.0342 24.7448 41.0342 23.8105 41.0342C22.8991 41.0342 21.9876 41.0342 21.0762 41.0342C20.1875 41.0342 19.3786 41.0456 18.6494 41.0684V39.3936C19.4242 39.3936 20.028 39.3708 20.4609 39.3252C20.8939 39.2568 21.2243 39.1201 21.4521 38.915C21.68 38.71 21.8167 38.4137 21.8623 38.0264C21.9307 37.639 21.9648 37.1149 21.9648 36.4541ZM25.7246 17.2451V36.4883C25.7246 37.1491 25.7588 37.6618 25.8271 38.0264C25.8955 38.391 26.055 38.6644 26.3057 38.8467C26.5563 39.029 26.9095 39.1429 27.3652 39.1885C27.8438 39.234 28.4932 39.2568 29.3135 39.2568C31.0908 39.2568 32.6175 38.9606 33.8936 38.3682C35.1924 37.7529 36.252 36.944 37.0723 35.9414C37.9154 34.916 38.5306 33.7311 38.918 32.3867C39.3281 31.0195 39.5332 29.584 39.5332 28.0801C39.5332 26.3483 39.2712 24.7988 38.7471 23.4316C38.2458 22.0645 37.5166 20.9251 36.5596 20.0137C35.6025 19.0794 34.429 18.373 33.0391 17.8945C31.6491 17.3932 30.0882 17.1426 28.3564 17.1426C27.5817 17.1426 26.9893 17.154 26.5791 17.1768C26.1917 17.1995 25.9069 17.2223 25.7246 17.2451Z" fill="black"/>
</svg>
